<svg width="20" height="13" viewBox="0 0 20 13" fill="none" xmlns="http://www.w3.org/2000/svg">
<path d="M8.54687 6.05297C8.54687 6.9109 7.86474 7.60639 7.02328 7.60639C6.18183 7.60639 5.4997 6.9109 5.4997 6.05297C5.4997 5.19504 6.18183 4.49955 7.02328 4.49955C7.86474 4.49955 8.54687 5.19504 8.54687 6.05297Z" fill="#5F6368"/>
<path d="M12.6448 9.58833C12.6448 10.4463 11.9626 11.1417 11.1212 11.1417C10.2797 11.1417 9.59761 10.4463 9.59761 9.58833C9.59761 8.7304 10.2797 8.03491 11.1212 8.03491C11.9626 8.03491 12.6448 8.7304 12.6448 9.58833Z" fill="#5F6368"/>
<path d="M20 1.55342C20 2.41135 19.3179 3.10683 18.4764 3.10683C17.635 3.10683 16.9528 2.41135 16.9528 1.55342C16.9528 0.695488 17.635 0 18.4764 0C19.3179 0 20 0.695488 20 1.55342Z" fill="#5F6368"/>
<path d="M11.1447 9.03837L18.3812 0.7315L19.2128 1.5787L11.1078 10.9043L7.04955 6.76985L0.934208 13L0 12.0483L7.04955 4.86636L11.1447 9.03837Z" fill="#5F6368"/>
</svg>
